<svg xmlns="http://www.w3.org/2000/svg" width="11" height="11" fill="none" viewBox="0 0 11 11">
    <path fill="#FAAC48" d="M0 .917C0 .41.41 0 .917 0h9.166c.507 0 .917.41.917.917v9.166c0 .507-.41.917-.917.917H.917A.917.917 0 0 1 0 10.083V.917z"/>
    <path fill="#DD871A" d="M10.5 11c-.276 0-.5-.205-.5-.458V.458c0-.253.224-.458.5-.458s.5.205.5.458v10.084c0 .253-.224.458-.5.458z"/>
    <path fill="#FFD5A0" d="M0 .458C0 .205.224 0 .5 0s.5.205.5.458v10.084C1 10.795.776 11 .5 11s-.5-.205-.5-.458V.458z"/>
    <path fill="#FFD5A0" d="M10.542 0c.131 0 .25.06.333.157L10.5.5 10 1H.458C.205 1 0 .776 0 .5S.205 0 .458 0h10.084z"/>
    <path fill="#DD871A" d="M.458 11a.44.44 0 0 1-.333-.157L.5 10.5 1 10h9.542c.253 0 .458.224.458.5s-.205.5-.458.5H.458z"/>
    <path fill="#333" fill-rule="evenodd" d="M9.167 4.741L5.452 8.25V6.259L9.167 2.75v1.991zm-7.334 0l3.62 3.509V6.259L1.832 2.75v1.991z" clip-rule="evenodd"/>
</svg>
