<svg xmlns="http://www.w3.org/2000/svg" width="37" height="12" fill="none" viewBox="0 0 37 12">
    <path fill="#DD871A" d="M.004 1c0-.552.343-1 2-1h32.5c1.657 0 1.5.448 1.5 1v10c0 .552.157 1-1.5 1h-33c-1.657 0-1.5-.448-1.5-1V1z"/>
    <path fill="#BA6C08" d="M.004.5a.5.5 0 0 1 1 0v11a.5.5 0 0 1-1 0V.5z"/>
    <path fill="#BA6C08" d="M.462 12a.44.44 0 0 1-.333-.157l.375-.343.5-.5h34.542c.253 0 .458.224.458.5s-.205.5-.458.5H.462z"/>
    <path fill="#BA6C08" d="M35.504 12a.5.5 0 0 1-.5-.5V.5a.5.5 0 0 1 1 0v11a.5.5 0 0 1-.5.5z"/>
    <path fill="#BA6C08" d="M35.546 0c.131 0 .25.06.333.157L35.504.5l-.5.5H.462C.21 1 .004.776.004.5S.21 0 .462 0h35.084z"/>
    <path fill="#333" d="M13.319 8c.853 0 1.282-.375 1.282-1.13 0-.705-.333-1.023-1.213-1.143-.617-.085-.842-.267-.842-.653 0-.392.274-.608.773-.608.504 0 .745.216.745.665h.483c0-.756-.407-1.131-1.212-1.131-.821 0-1.267.386-1.267 1.125 0 .665.312.966 1.149 1.085.67.097.906.29.906.705 0 .409-.268.62-.799.62-.553 0-.837-.234-.837-.7h-.483c0 .779.445 1.165 1.315 1.165zM16.149 7.932h.429V7.5h-.317c-.316 0-.397-.097-.397-.477V5.409h.682V5h-.682v-.773h-.424L15.403 5h-.489v.41h.478v1.607c0 .642.225.915.757.915zM17.885 8c.402 0 .713-.165.939-.466l.016.398h.402V6.017c0-.727-.354-1.085-1.084-1.085-.692 0-1.067.324-1.116.96h.462c.016-.358.247-.528.638-.528.43 0 .628.21.628.664v.16h-.665c-.778 0-1.143.329-1.143.914 0 .574.354.898.923.898zm.07-.432c-.35 0-.52-.17-.52-.477 0-.33.203-.489.686-.489h.65v.415c-.167.358-.446.551-.816.551zM20.074 7.932h.472V6.244c.091-.562.344-.806.794-.806h.14v-.495h-.188c-.402 0-.655.188-.794.602L20.477 5h-.403v2.932zM22.908 7.932h.43V7.5h-.317c-.317 0-.397-.097-.397-.477V5.409h.681V5h-.681v-.773H22.2L22.162 5h-.488v.41h.477v1.607c0 .642.226.915.757.915z"/>
</svg>
